<svg xmlns="http://www.w3.org/2000/svg" viewBox="0 0 512 512" width="512" height="512">
  <defs>
    <linearGradient id="mBg" x1="0" y1="0" x2="1" y2="1">
      <stop offset="0%" stop-color="#f6f0e0"/>
      <stop offset="60%" stop-color="#efdcbb"/>
      <stop offset="100%" stop-color="#c9a869"/>
    </linearGradient>
    <linearGradient id="mBook" x1="0" y1="0" x2="1" y2="0">
      <stop offset="0%" stop-color="#6b4f24"/>
      <stop offset="50%" stop-color="#8b6f3f"/>
      <stop offset="100%" stop-color="#b48b52"/>
    </linearGradient>
    <linearGradient id="mSeal" x1="0" y1="0" x2="1" y2="1">
      <stop offset="0%" stop-color="#b91c1c"/>
      <stop offset="100%" stop-color="#7f1d1d"/>
    </linearGradient>
  </defs>
  <rect x="0" y="0" width="512" height="512" fill="url(#mBg)"/>
  <g transform="translate(96 132)">
    <rect x="0" y="0" width="320" height="248" rx="18" fill="url(#mBook)"/>
    <rect x="158" y="8" width="4" height="232" rx="2" fill="#f6f0e0" opacity="0.65"/>
    <g stroke="#f6f0e0" stroke-width="5" stroke-linecap="round" fill="none" opacity="0.85">
      <path d="M32 52 H148"/>
      <path d="M32 84 H148"/>
      <path d="M32 116 H148"/>
      <path d="M174 52 H288"/>
      <path d="M174 84 H288"/>
      <path d="M174 116 H288"/>
    </g>
    <text x="36" y="200" fill="#f6f0e0" font-family="'Libre Baskerville', Georgia, serif" font-size="52" font-weight="700">Kinh điển</text>
  </g>
  <g transform="translate(412 70)">
    <circle cx="0" cy="0" r="60" fill="url(#mSeal)"/>
    <circle cx="0" cy="0" r="50" fill="none" stroke="#f6f0e0" stroke-width="3"/>
    <text x="0" y="16" text-anchor="middle" fill="#f6f0e0" font-family="Georgia, serif" font-size="54" font-weight="800">經</text>
  </g>
  <text x="256" y="464" text-anchor="middle" fill="#6b4f24" font-family="Outfit, Inter, sans-serif" font-size="44" font-weight="800" letter-spacing="8">KDPD</text>
</svg>
